<mxfile host="app.diagrams.net" agent="Mozilla/5.0 (Windows NT 10.0; Win64; x64) AppleWebKit/537.36 (KHTML, like Gecko) Chrome/133.0.0.0 Safari/537.36" version="26.0.13">
  <diagram name="Página-1" id="30YjuFLNoalsAsQBXiFY">
    <mxGraphModel dx="1552" dy="866" grid="1" gridSize="10" guides="1" tooltips="1" connect="1" arrows="1" fold="1" page="1" pageScale="1" pageWidth="827" pageHeight="1169" math="0" shadow="0">
      <root>
        <mxCell id="0" />
        <mxCell id="1" parent="0" />
        <mxCell id="LbHyzXiKhaaDVt7-LKor-1" value="Usuario" style="rounded=0;whiteSpace=wrap;html=1;" vertex="1" parent="1">
          <mxGeometry x="80" y="40" width="120" height="40" as="geometry" />
        </mxCell>
        <mxCell id="LbHyzXiKhaaDVt7-LKor-2" value="App" style="rounded=0;whiteSpace=wrap;html=1;" vertex="1" parent="1">
          <mxGeometry x="280" y="40" width="120" height="40" as="geometry" />
        </mxCell>
        <mxCell id="LbHyzXiKhaaDVt7-LKor-3" value="Api" style="rounded=0;whiteSpace=wrap;html=1;" vertex="1" parent="1">
          <mxGeometry x="480" y="40" width="120" height="40" as="geometry" />
        </mxCell>
        <mxCell id="LbHyzXiKhaaDVt7-LKor-4" value="Base de datos" style="rounded=0;whiteSpace=wrap;html=1;" vertex="1" parent="1">
          <mxGeometry x="680" y="40" width="120" height="40" as="geometry" />
        </mxCell>
        <mxCell id="LbHyzXiKhaaDVt7-LKor-5" value="" style="endArrow=none;html=1;rounded=0;entryX=0.5;entryY=1;entryDx=0;entryDy=0;" edge="1" parent="1" target="LbHyzXiKhaaDVt7-LKor-1">
          <mxGeometry width="50" height="50" relative="1" as="geometry">
            <mxPoint x="130" y="2320" as="sourcePoint" />
            <mxPoint x="210" y="270" as="targetPoint" />
          </mxGeometry>
        </mxCell>
        <mxCell id="LbHyzXiKhaaDVt7-LKor-6" value="" style="endArrow=none;html=1;rounded=0;entryX=0.5;entryY=1;entryDx=0;entryDy=0;" edge="1" parent="1">
          <mxGeometry width="50" height="50" relative="1" as="geometry">
            <mxPoint x="330" y="2300" as="sourcePoint" />
            <mxPoint x="339.33000000000004" y="80" as="targetPoint" />
          </mxGeometry>
        </mxCell>
        <mxCell id="LbHyzXiKhaaDVt7-LKor-7" value="" style="endArrow=none;html=1;rounded=0;entryX=0.5;entryY=1;entryDx=0;entryDy=0;" edge="1" parent="1">
          <mxGeometry width="50" height="50" relative="1" as="geometry">
            <mxPoint x="539" y="2290" as="sourcePoint" />
            <mxPoint x="539.33" y="80" as="targetPoint" />
          </mxGeometry>
        </mxCell>
        <mxCell id="LbHyzXiKhaaDVt7-LKor-8" value="" style="endArrow=none;html=1;rounded=0;entryX=0.5;entryY=1;entryDx=0;entryDy=0;" edge="1" parent="1">
          <mxGeometry width="50" height="50" relative="1" as="geometry">
            <mxPoint x="740" y="2300" as="sourcePoint" />
            <mxPoint x="739.33" y="80" as="targetPoint" />
          </mxGeometry>
        </mxCell>
        <mxCell id="LbHyzXiKhaaDVt7-LKor-9" value="Navega por la aplicación&amp;nbsp;" style="text;html=1;align=center;verticalAlign=middle;resizable=0;points=[];autosize=1;strokeColor=none;fillColor=none;" vertex="1" parent="1">
          <mxGeometry x="150" y="128" width="160" height="30" as="geometry" />
        </mxCell>
        <mxCell id="LbHyzXiKhaaDVt7-LKor-10" value="" style="endArrow=classic;html=1;rounded=0;" edge="1" parent="1">
          <mxGeometry width="50" height="50" relative="1" as="geometry">
            <mxPoint x="140" y="160" as="sourcePoint" />
            <mxPoint x="340" y="160" as="targetPoint" />
          </mxGeometry>
        </mxCell>
        <mxCell id="LbHyzXiKhaaDVt7-LKor-11" value="" style="endArrow=classic;html=1;rounded=0;" edge="1" parent="1">
          <mxGeometry width="50" height="50" relative="1" as="geometry">
            <mxPoint x="140" y="230" as="sourcePoint" />
            <mxPoint x="340" y="230" as="targetPoint" />
          </mxGeometry>
        </mxCell>
        <mxCell id="LbHyzXiKhaaDVt7-LKor-12" value="Ve apartado de vestidos" style="text;html=1;align=center;verticalAlign=middle;resizable=0;points=[];autosize=1;strokeColor=none;fillColor=none;" vertex="1" parent="1">
          <mxGeometry x="160" y="198" width="150" height="30" as="geometry" />
        </mxCell>
        <mxCell id="LbHyzXiKhaaDVt7-LKor-13" value="" style="endArrow=classic;html=1;rounded=0;edgeStyle=orthogonalEdgeStyle;curved=1;" edge="1" parent="1">
          <mxGeometry width="50" height="50" relative="1" as="geometry">
            <mxPoint x="340" y="240" as="sourcePoint" />
            <mxPoint x="340" y="260" as="targetPoint" />
            <Array as="points">
              <mxPoint x="370" y="240" />
              <mxPoint x="370" y="260" />
            </Array>
          </mxGeometry>
        </mxCell>
        <mxCell id="LbHyzXiKhaaDVt7-LKor-14" value="" style="endArrow=classic;html=1;rounded=0;" edge="1" parent="1">
          <mxGeometry width="50" height="50" relative="1" as="geometry">
            <mxPoint x="140" y="290" as="sourcePoint" />
            <mxPoint x="340" y="290" as="targetPoint" />
          </mxGeometry>
        </mxCell>
        <mxCell id="LbHyzXiKhaaDVt7-LKor-15" value="Formulario de vestidos" style="text;html=1;align=center;verticalAlign=middle;resizable=0;points=[];autosize=1;strokeColor=none;fillColor=none;" vertex="1" parent="1">
          <mxGeometry x="165" y="258" width="140" height="30" as="geometry" />
        </mxCell>
        <mxCell id="LbHyzXiKhaaDVt7-LKor-16" value="" style="endArrow=classic;html=1;rounded=0;edgeStyle=orthogonalEdgeStyle;curved=1;" edge="1" parent="1">
          <mxGeometry width="50" height="50" relative="1" as="geometry">
            <mxPoint x="340" y="300" as="sourcePoint" />
            <mxPoint x="340" y="320" as="targetPoint" />
            <Array as="points">
              <mxPoint x="370" y="300" />
              <mxPoint x="370" y="320" />
            </Array>
          </mxGeometry>
        </mxCell>
        <mxCell id="LbHyzXiKhaaDVt7-LKor-17" value="" style="endArrow=none;html=1;rounded=0;startFill=1;startArrow=classic;" edge="1" parent="1">
          <mxGeometry width="50" height="50" relative="1" as="geometry">
            <mxPoint x="140" y="340" as="sourcePoint" />
            <mxPoint x="340" y="340" as="targetPoint" />
          </mxGeometry>
        </mxCell>
        <mxCell id="LbHyzXiKhaaDVt7-LKor-18" value="Campos vacíos del vestido" style="text;html=1;align=center;verticalAlign=middle;resizable=0;points=[];autosize=1;strokeColor=none;fillColor=none;" vertex="1" parent="1">
          <mxGeometry x="150" y="310" width="170" height="30" as="geometry" />
        </mxCell>
        <mxCell id="LbHyzXiKhaaDVt7-LKor-19" value="" style="endArrow=classic;html=1;rounded=0;" edge="1" parent="1">
          <mxGeometry width="50" height="50" relative="1" as="geometry">
            <mxPoint x="140" y="390" as="sourcePoint" />
            <mxPoint x="340" y="390" as="targetPoint" />
          </mxGeometry>
        </mxCell>
        <mxCell id="LbHyzXiKhaaDVt7-LKor-20" value="Rellena campos&amp;nbsp;" style="text;html=1;align=center;verticalAlign=middle;resizable=0;points=[];autosize=1;strokeColor=none;fillColor=none;" vertex="1" parent="1">
          <mxGeometry x="175" y="360" width="110" height="30" as="geometry" />
        </mxCell>
        <mxCell id="LbHyzXiKhaaDVt7-LKor-21" value="" style="endArrow=classic;html=1;rounded=0;" edge="1" parent="1">
          <mxGeometry width="50" height="50" relative="1" as="geometry">
            <mxPoint x="340" y="410" as="sourcePoint" />
            <mxPoint x="540" y="410" as="targetPoint" />
          </mxGeometry>
        </mxCell>
        <mxCell id="LbHyzXiKhaaDVt7-LKor-22" value="Post del vestido con&lt;div&gt;&amp;nbsp;credenciales&lt;/div&gt;" style="text;html=1;align=center;verticalAlign=middle;resizable=0;points=[];autosize=1;strokeColor=none;fillColor=none;" vertex="1" parent="1">
          <mxGeometry x="370" y="370" width="130" height="40" as="geometry" />
        </mxCell>
        <mxCell id="LbHyzXiKhaaDVt7-LKor-23" value="" style="endArrow=classic;html=1;rounded=0;" edge="1" parent="1">
          <mxGeometry width="50" height="50" relative="1" as="geometry">
            <mxPoint x="540" y="430" as="sourcePoint" />
            <mxPoint x="740" y="430" as="targetPoint" />
          </mxGeometry>
        </mxCell>
        <mxCell id="LbHyzXiKhaaDVt7-LKor-24" value="Post del vestido con&lt;div&gt;&amp;nbsp;credenciales&lt;/div&gt;" style="text;html=1;align=center;verticalAlign=middle;resizable=0;points=[];autosize=1;strokeColor=none;fillColor=none;" vertex="1" parent="1">
          <mxGeometry x="570" y="390" width="130" height="40" as="geometry" />
        </mxCell>
        <mxCell id="LbHyzXiKhaaDVt7-LKor-25" value="" style="endArrow=none;html=1;rounded=0;startFill=1;startArrow=classic;" edge="1" parent="1">
          <mxGeometry width="50" height="50" relative="1" as="geometry">
            <mxPoint x="535" y="470" as="sourcePoint" />
            <mxPoint x="735" y="470" as="targetPoint" />
          </mxGeometry>
        </mxCell>
        <mxCell id="LbHyzXiKhaaDVt7-LKor-26" value="Error 404" style="text;html=1;align=center;verticalAlign=middle;resizable=0;points=[];autosize=1;strokeColor=none;fillColor=none;" vertex="1" parent="1">
          <mxGeometry x="600" y="440" width="70" height="30" as="geometry" />
        </mxCell>
        <mxCell id="LbHyzXiKhaaDVt7-LKor-27" value="" style="endArrow=none;html=1;rounded=0;startFill=1;startArrow=classic;" edge="1" parent="1">
          <mxGeometry width="50" height="50" relative="1" as="geometry">
            <mxPoint x="535" y="510" as="sourcePoint" />
            <mxPoint x="735" y="510" as="targetPoint" />
          </mxGeometry>
        </mxCell>
        <mxCell id="LbHyzXiKhaaDVt7-LKor-28" value="Devuelve post&amp;nbsp;" style="text;html=1;align=center;verticalAlign=middle;resizable=0;points=[];autosize=1;strokeColor=none;fillColor=none;" vertex="1" parent="1">
          <mxGeometry x="590" y="480" width="100" height="30" as="geometry" />
        </mxCell>
        <mxCell id="LbHyzXiKhaaDVt7-LKor-29" value="" style="endArrow=none;html=1;rounded=0;startFill=1;startArrow=classic;" edge="1" parent="1">
          <mxGeometry width="50" height="50" relative="1" as="geometry">
            <mxPoint x="335" y="530" as="sourcePoint" />
            <mxPoint x="535" y="530" as="targetPoint" />
          </mxGeometry>
        </mxCell>
        <mxCell id="LbHyzXiKhaaDVt7-LKor-30" value="Devuelve post&amp;nbsp;" style="text;html=1;align=center;verticalAlign=middle;resizable=0;points=[];autosize=1;strokeColor=none;fillColor=none;" vertex="1" parent="1">
          <mxGeometry x="385" y="500" width="100" height="30" as="geometry" />
        </mxCell>
        <mxCell id="LbHyzXiKhaaDVt7-LKor-31" value="" style="endArrow=none;html=1;rounded=0;startFill=1;startArrow=classic;" edge="1" parent="1">
          <mxGeometry width="50" height="50" relative="1" as="geometry">
            <mxPoint x="135" y="550" as="sourcePoint" />
            <mxPoint x="335" y="550" as="targetPoint" />
          </mxGeometry>
        </mxCell>
        <mxCell id="LbHyzXiKhaaDVt7-LKor-32" value="Agregado con éxito&amp;nbsp;" style="text;html=1;align=center;verticalAlign=middle;resizable=0;points=[];autosize=1;strokeColor=none;fillColor=none;" vertex="1" parent="1">
          <mxGeometry x="170" y="518" width="130" height="30" as="geometry" />
        </mxCell>
        <mxCell id="LbHyzXiKhaaDVt7-LKor-33" value="" style="endArrow=classic;html=1;rounded=0;" edge="1" parent="1">
          <mxGeometry width="50" height="50" relative="1" as="geometry">
            <mxPoint x="135" y="600" as="sourcePoint" />
            <mxPoint x="335" y="600" as="targetPoint" />
          </mxGeometry>
        </mxCell>
        <mxCell id="LbHyzXiKhaaDVt7-LKor-34" value="Navega por el apartado&lt;div&gt;&amp;nbsp;de vestido&lt;/div&gt;" style="text;html=1;align=center;verticalAlign=middle;resizable=0;points=[];autosize=1;strokeColor=none;fillColor=none;" vertex="1" parent="1">
          <mxGeometry x="155" y="565" width="150" height="40" as="geometry" />
        </mxCell>
        <mxCell id="LbHyzXiKhaaDVt7-LKor-35" value="" style="endArrow=classic;html=1;rounded=0;edgeStyle=orthogonalEdgeStyle;curved=1;" edge="1" parent="1">
          <mxGeometry width="50" height="50" relative="1" as="geometry">
            <mxPoint x="340" y="605" as="sourcePoint" />
            <mxPoint x="340" y="625" as="targetPoint" />
            <Array as="points">
              <mxPoint x="370" y="605" />
              <mxPoint x="370" y="625" />
            </Array>
          </mxGeometry>
        </mxCell>
        <mxCell id="LbHyzXiKhaaDVt7-LKor-36" value="" style="endArrow=classic;html=1;rounded=0;" edge="1" parent="1">
          <mxGeometry width="50" height="50" relative="1" as="geometry">
            <mxPoint x="135" y="660" as="sourcePoint" />
            <mxPoint x="335" y="660" as="targetPoint" />
          </mxGeometry>
        </mxCell>
        <mxCell id="LbHyzXiKhaaDVt7-LKor-37" value="Selecciona eliminar" style="text;html=1;align=center;verticalAlign=middle;resizable=0;points=[];autosize=1;strokeColor=none;fillColor=none;" vertex="1" parent="1">
          <mxGeometry x="175" y="628" width="130" height="30" as="geometry" />
        </mxCell>
        <mxCell id="LbHyzXiKhaaDVt7-LKor-42" value="" style="endArrow=classic;html=1;rounded=0;" edge="1" parent="1">
          <mxGeometry width="50" height="50" relative="1" as="geometry">
            <mxPoint x="335" y="680" as="sourcePoint" />
            <mxPoint x="535" y="680" as="targetPoint" />
          </mxGeometry>
        </mxCell>
        <mxCell id="LbHyzXiKhaaDVt7-LKor-43" value="Post de lista de vestidos" style="text;html=1;align=center;verticalAlign=middle;resizable=0;points=[];autosize=1;strokeColor=none;fillColor=none;" vertex="1" parent="1">
          <mxGeometry x="360" y="650" width="150" height="30" as="geometry" />
        </mxCell>
        <mxCell id="LbHyzXiKhaaDVt7-LKor-44" value="" style="endArrow=classic;html=1;rounded=0;" edge="1" parent="1">
          <mxGeometry width="50" height="50" relative="1" as="geometry">
            <mxPoint x="540" y="700" as="sourcePoint" />
            <mxPoint x="740" y="700" as="targetPoint" />
          </mxGeometry>
        </mxCell>
        <mxCell id="LbHyzXiKhaaDVt7-LKor-45" value="Post de lista de vestidos" style="text;html=1;align=center;verticalAlign=middle;resizable=0;points=[];autosize=1;strokeColor=none;fillColor=none;" vertex="1" parent="1">
          <mxGeometry x="560" y="670" width="150" height="30" as="geometry" />
        </mxCell>
        <mxCell id="LbHyzXiKhaaDVt7-LKor-46" value="" style="endArrow=none;html=1;rounded=0;startFill=1;startArrow=classic;" edge="1" parent="1">
          <mxGeometry width="50" height="50" relative="1" as="geometry">
            <mxPoint x="540" y="740" as="sourcePoint" />
            <mxPoint x="740" y="740" as="targetPoint" />
          </mxGeometry>
        </mxCell>
        <mxCell id="LbHyzXiKhaaDVt7-LKor-47" value="Error 404&amp;nbsp;" style="text;html=1;align=center;verticalAlign=middle;resizable=0;points=[];autosize=1;strokeColor=none;fillColor=none;" vertex="1" parent="1">
          <mxGeometry x="600" y="708" width="80" height="30" as="geometry" />
        </mxCell>
        <mxCell id="LbHyzXiKhaaDVt7-LKor-48" value="" style="endArrow=none;html=1;rounded=0;startFill=1;startArrow=classic;" edge="1" parent="1">
          <mxGeometry width="50" height="50" relative="1" as="geometry">
            <mxPoint x="540" y="790" as="sourcePoint" />
            <mxPoint x="740" y="790" as="targetPoint" />
          </mxGeometry>
        </mxCell>
        <mxCell id="LbHyzXiKhaaDVt7-LKor-49" value="Post con lista de vestidos" style="text;html=1;align=center;verticalAlign=middle;resizable=0;points=[];autosize=1;strokeColor=none;fillColor=none;" vertex="1" parent="1">
          <mxGeometry x="560" y="760" width="160" height="30" as="geometry" />
        </mxCell>
        <mxCell id="LbHyzXiKhaaDVt7-LKor-50" value="" style="endArrow=none;html=1;rounded=0;startFill=1;startArrow=classic;" edge="1" parent="1">
          <mxGeometry width="50" height="50" relative="1" as="geometry">
            <mxPoint x="340" y="810" as="sourcePoint" />
            <mxPoint x="540" y="810" as="targetPoint" />
          </mxGeometry>
        </mxCell>
        <mxCell id="LbHyzXiKhaaDVt7-LKor-51" value="Post con lista de vestidos" style="text;html=1;align=center;verticalAlign=middle;resizable=0;points=[];autosize=1;strokeColor=none;fillColor=none;" vertex="1" parent="1">
          <mxGeometry x="360" y="780" width="160" height="30" as="geometry" />
        </mxCell>
        <mxCell id="LbHyzXiKhaaDVt7-LKor-52" value="" style="endArrow=none;html=1;rounded=0;startFill=1;startArrow=classic;" edge="1" parent="1">
          <mxGeometry width="50" height="50" relative="1" as="geometry">
            <mxPoint x="135" y="830" as="sourcePoint" />
            <mxPoint x="335" y="830" as="targetPoint" />
          </mxGeometry>
        </mxCell>
        <mxCell id="LbHyzXiKhaaDVt7-LKor-53" value="Lista de vestidos" style="text;html=1;align=center;verticalAlign=middle;resizable=0;points=[];autosize=1;strokeColor=none;fillColor=none;" vertex="1" parent="1">
          <mxGeometry x="180" y="800" width="110" height="30" as="geometry" />
        </mxCell>
        <mxCell id="LbHyzXiKhaaDVt7-LKor-54" value="" style="endArrow=classic;html=1;rounded=0;" edge="1" parent="1">
          <mxGeometry width="50" height="50" relative="1" as="geometry">
            <mxPoint x="135" y="880" as="sourcePoint" />
            <mxPoint x="335" y="880" as="targetPoint" />
          </mxGeometry>
        </mxCell>
        <mxCell id="LbHyzXiKhaaDVt7-LKor-55" value="Selecciona vestidos" style="text;html=1;align=center;verticalAlign=middle;resizable=0;points=[];autosize=1;strokeColor=none;fillColor=none;" vertex="1" parent="1">
          <mxGeometry x="170" y="848" width="130" height="30" as="geometry" />
        </mxCell>
        <mxCell id="LbHyzXiKhaaDVt7-LKor-56" value="" style="endArrow=classic;html=1;rounded=0;" edge="1" parent="1">
          <mxGeometry width="50" height="50" relative="1" as="geometry">
            <mxPoint x="340" y="900" as="sourcePoint" />
            <mxPoint x="540" y="900" as="targetPoint" />
          </mxGeometry>
        </mxCell>
        <mxCell id="LbHyzXiKhaaDVt7-LKor-57" value="Post de vestidos eliminados" style="text;html=1;align=center;verticalAlign=middle;resizable=0;points=[];autosize=1;strokeColor=none;fillColor=none;" vertex="1" parent="1">
          <mxGeometry x="350" y="870" width="170" height="30" as="geometry" />
        </mxCell>
        <mxCell id="LbHyzXiKhaaDVt7-LKor-58" value="" style="endArrow=classic;html=1;rounded=0;" edge="1" parent="1">
          <mxGeometry width="50" height="50" relative="1" as="geometry">
            <mxPoint x="540" y="920" as="sourcePoint" />
            <mxPoint x="740" y="920" as="targetPoint" />
          </mxGeometry>
        </mxCell>
        <mxCell id="LbHyzXiKhaaDVt7-LKor-59" value="Actualiza la base de datos" style="text;html=1;align=center;verticalAlign=middle;resizable=0;points=[];autosize=1;strokeColor=none;fillColor=none;" vertex="1" parent="1">
          <mxGeometry x="560" y="890" width="160" height="30" as="geometry" />
        </mxCell>
        <mxCell id="LbHyzXiKhaaDVt7-LKor-61" value="" style="endArrow=none;html=1;rounded=0;startFill=1;startArrow=classic;" edge="1" parent="1">
          <mxGeometry width="50" height="50" relative="1" as="geometry">
            <mxPoint x="540" y="960" as="sourcePoint" />
            <mxPoint x="740" y="960" as="targetPoint" />
          </mxGeometry>
        </mxCell>
        <mxCell id="LbHyzXiKhaaDVt7-LKor-62" value="Error 404" style="text;html=1;align=center;verticalAlign=middle;resizable=0;points=[];autosize=1;strokeColor=none;fillColor=none;" vertex="1" parent="1">
          <mxGeometry x="605" y="930" width="70" height="30" as="geometry" />
        </mxCell>
        <mxCell id="LbHyzXiKhaaDVt7-LKor-63" value="" style="endArrow=none;html=1;rounded=0;startFill=1;startArrow=classic;" edge="1" parent="1">
          <mxGeometry width="50" height="50" relative="1" as="geometry">
            <mxPoint x="540" y="1010" as="sourcePoint" />
            <mxPoint x="740" y="1010" as="targetPoint" />
          </mxGeometry>
        </mxCell>
        <mxCell id="LbHyzXiKhaaDVt7-LKor-64" value="Post de actualización&amp;nbsp;" style="text;html=1;align=center;verticalAlign=middle;resizable=0;points=[];autosize=1;strokeColor=none;fillColor=none;" vertex="1" parent="1">
          <mxGeometry x="560" y="980" width="140" height="30" as="geometry" />
        </mxCell>
        <mxCell id="LbHyzXiKhaaDVt7-LKor-65" value="" style="endArrow=none;html=1;rounded=0;startFill=1;startArrow=classic;" edge="1" parent="1">
          <mxGeometry width="50" height="50" relative="1" as="geometry">
            <mxPoint x="335" y="1030" as="sourcePoint" />
            <mxPoint x="535" y="1030" as="targetPoint" />
          </mxGeometry>
        </mxCell>
        <mxCell id="LbHyzXiKhaaDVt7-LKor-66" value="Post de actualización&amp;nbsp;" style="text;html=1;align=center;verticalAlign=middle;resizable=0;points=[];autosize=1;strokeColor=none;fillColor=none;" vertex="1" parent="1">
          <mxGeometry x="370" y="1000" width="140" height="30" as="geometry" />
        </mxCell>
        <mxCell id="LbHyzXiKhaaDVt7-LKor-67" value="" style="endArrow=none;html=1;rounded=0;startFill=1;startArrow=classic;" edge="1" parent="1">
          <mxGeometry width="50" height="50" relative="1" as="geometry">
            <mxPoint x="135" y="1050" as="sourcePoint" />
            <mxPoint x="335" y="1050" as="targetPoint" />
          </mxGeometry>
        </mxCell>
        <mxCell id="LbHyzXiKhaaDVt7-LKor-68" value="Eliminación con éxito" style="text;html=1;align=center;verticalAlign=middle;resizable=0;points=[];autosize=1;strokeColor=none;fillColor=none;" vertex="1" parent="1">
          <mxGeometry x="160" y="1020" width="140" height="30" as="geometry" />
        </mxCell>
        <mxCell id="LbHyzXiKhaaDVt7-LKor-69" value="" style="endArrow=classic;html=1;rounded=0;" edge="1" parent="1">
          <mxGeometry width="50" height="50" relative="1" as="geometry">
            <mxPoint x="137.5" y="1112" as="sourcePoint" />
            <mxPoint x="337.5" y="1112" as="targetPoint" />
          </mxGeometry>
        </mxCell>
        <mxCell id="LbHyzXiKhaaDVt7-LKor-70" value="Selecciona vestido" style="text;html=1;align=center;verticalAlign=middle;resizable=0;points=[];autosize=1;strokeColor=none;fillColor=none;" vertex="1" parent="1">
          <mxGeometry x="177.5" y="1080" width="120" height="30" as="geometry" />
        </mxCell>
        <mxCell id="LbHyzXiKhaaDVt7-LKor-71" value="" style="endArrow=classic;html=1;rounded=0;" edge="1" parent="1">
          <mxGeometry width="50" height="50" relative="1" as="geometry">
            <mxPoint x="342.5" y="1132" as="sourcePoint" />
            <mxPoint x="542.5" y="1132" as="targetPoint" />
          </mxGeometry>
        </mxCell>
        <mxCell id="LbHyzXiKhaaDVt7-LKor-72" value="Post de vestido" style="text;html=1;align=center;verticalAlign=middle;resizable=0;points=[];autosize=1;strokeColor=none;fillColor=none;" vertex="1" parent="1">
          <mxGeometry x="382.5" y="1102" width="110" height="30" as="geometry" />
        </mxCell>
        <mxCell id="LbHyzXiKhaaDVt7-LKor-73" value="" style="endArrow=classic;html=1;rounded=0;" edge="1" parent="1">
          <mxGeometry width="50" height="50" relative="1" as="geometry">
            <mxPoint x="542.5" y="1152" as="sourcePoint" />
            <mxPoint x="742.5" y="1152" as="targetPoint" />
          </mxGeometry>
        </mxCell>
        <mxCell id="LbHyzXiKhaaDVt7-LKor-74" value="Post de vestidos" style="text;html=1;align=center;verticalAlign=middle;resizable=0;points=[];autosize=1;strokeColor=none;fillColor=none;" vertex="1" parent="1">
          <mxGeometry x="587.5" y="1122" width="110" height="30" as="geometry" />
        </mxCell>
        <mxCell id="LbHyzXiKhaaDVt7-LKor-75" value="" style="endArrow=none;html=1;rounded=0;startFill=1;startArrow=classic;" edge="1" parent="1">
          <mxGeometry width="50" height="50" relative="1" as="geometry">
            <mxPoint x="542.5" y="1192" as="sourcePoint" />
            <mxPoint x="742.5" y="1192" as="targetPoint" />
          </mxGeometry>
        </mxCell>
        <mxCell id="LbHyzXiKhaaDVt7-LKor-76" value="Error 404" style="text;html=1;align=center;verticalAlign=middle;resizable=0;points=[];autosize=1;strokeColor=none;fillColor=none;" vertex="1" parent="1">
          <mxGeometry x="607.5" y="1162" width="70" height="30" as="geometry" />
        </mxCell>
        <mxCell id="LbHyzXiKhaaDVt7-LKor-77" value="" style="endArrow=none;html=1;rounded=0;startFill=1;startArrow=classic;" edge="1" parent="1">
          <mxGeometry width="50" height="50" relative="1" as="geometry">
            <mxPoint x="542.5" y="1242" as="sourcePoint" />
            <mxPoint x="742.5" y="1242" as="targetPoint" />
          </mxGeometry>
        </mxCell>
        <mxCell id="LbHyzXiKhaaDVt7-LKor-78" value="Post del vestido&amp;nbsp;" style="text;html=1;align=center;verticalAlign=middle;resizable=0;points=[];autosize=1;strokeColor=none;fillColor=none;" vertex="1" parent="1">
          <mxGeometry x="577.5" y="1212" width="110" height="30" as="geometry" />
        </mxCell>
        <mxCell id="LbHyzXiKhaaDVt7-LKor-79" value="" style="endArrow=none;html=1;rounded=0;startFill=1;startArrow=classic;" edge="1" parent="1">
          <mxGeometry width="50" height="50" relative="1" as="geometry">
            <mxPoint x="337.5" y="1262" as="sourcePoint" />
            <mxPoint x="537.5" y="1262" as="targetPoint" />
          </mxGeometry>
        </mxCell>
        <mxCell id="LbHyzXiKhaaDVt7-LKor-80" value="Post del vestido&amp;nbsp;" style="text;html=1;align=center;verticalAlign=middle;resizable=0;points=[];autosize=1;strokeColor=none;fillColor=none;" vertex="1" parent="1">
          <mxGeometry x="387.5" y="1232" width="110" height="30" as="geometry" />
        </mxCell>
        <mxCell id="LbHyzXiKhaaDVt7-LKor-81" value="" style="endArrow=none;html=1;rounded=0;startFill=1;startArrow=classic;" edge="1" parent="1">
          <mxGeometry width="50" height="50" relative="1" as="geometry">
            <mxPoint x="137.5" y="1282" as="sourcePoint" />
            <mxPoint x="337.5" y="1282" as="targetPoint" />
          </mxGeometry>
        </mxCell>
        <mxCell id="LbHyzXiKhaaDVt7-LKor-82" value="Ve datos de vestido" style="text;html=1;align=center;verticalAlign=middle;resizable=0;points=[];autosize=1;strokeColor=none;fillColor=none;" vertex="1" parent="1">
          <mxGeometry x="167.5" y="1252" width="130" height="30" as="geometry" />
        </mxCell>
        <mxCell id="LbHyzXiKhaaDVt7-LKor-84" value="" style="endArrow=classic;html=1;rounded=0;" edge="1" parent="1">
          <mxGeometry width="50" height="50" relative="1" as="geometry">
            <mxPoint x="140" y="1340" as="sourcePoint" />
            <mxPoint x="340" y="1340" as="targetPoint" />
          </mxGeometry>
        </mxCell>
        <mxCell id="LbHyzXiKhaaDVt7-LKor-85" value="Selecciona un atributos a modificar" style="text;html=1;align=center;verticalAlign=middle;resizable=0;points=[];autosize=1;strokeColor=none;fillColor=none;" vertex="1" parent="1">
          <mxGeometry x="127.5" y="1310" width="210" height="30" as="geometry" />
        </mxCell>
        <mxCell id="LbHyzXiKhaaDVt7-LKor-86" value="" style="endArrow=classic;html=1;rounded=0;edgeStyle=orthogonalEdgeStyle;curved=1;" edge="1" parent="1">
          <mxGeometry width="50" height="50" relative="1" as="geometry">
            <mxPoint x="337.5" y="1360" as="sourcePoint" />
            <mxPoint x="337.5" y="1380" as="targetPoint" />
            <Array as="points">
              <mxPoint x="367.5" y="1360" />
              <mxPoint x="367.5" y="1380" />
            </Array>
          </mxGeometry>
        </mxCell>
        <mxCell id="LbHyzXiKhaaDVt7-LKor-87" value="" style="endArrow=classic;html=1;rounded=0;" edge="1" parent="1">
          <mxGeometry width="50" height="50" relative="1" as="geometry">
            <mxPoint x="140" y="1410" as="sourcePoint" />
            <mxPoint x="340" y="1410" as="targetPoint" />
          </mxGeometry>
        </mxCell>
        <mxCell id="LbHyzXiKhaaDVt7-LKor-88" value="Guardar cambios&amp;nbsp;" style="text;html=1;align=center;verticalAlign=middle;resizable=0;points=[];autosize=1;strokeColor=none;fillColor=none;" vertex="1" parent="1">
          <mxGeometry x="177.5" y="1380" width="120" height="30" as="geometry" />
        </mxCell>
        <mxCell id="LbHyzXiKhaaDVt7-LKor-89" value="" style="endArrow=classic;html=1;rounded=0;" edge="1" parent="1">
          <mxGeometry width="50" height="50" relative="1" as="geometry">
            <mxPoint x="337.5" y="1440" as="sourcePoint" />
            <mxPoint x="537.5" y="1440" as="targetPoint" />
          </mxGeometry>
        </mxCell>
        <mxCell id="LbHyzXiKhaaDVt7-LKor-90" value="Post de cambios" style="text;html=1;align=center;verticalAlign=middle;resizable=0;points=[];autosize=1;strokeColor=none;fillColor=none;" vertex="1" parent="1">
          <mxGeometry x="380" y="1400" width="110" height="30" as="geometry" />
        </mxCell>
        <mxCell id="LbHyzXiKhaaDVt7-LKor-92" value="" style="endArrow=classic;html=1;rounded=0;" edge="1" parent="1">
          <mxGeometry width="50" height="50" relative="1" as="geometry">
            <mxPoint x="540" y="1460" as="sourcePoint" />
            <mxPoint x="740" y="1460" as="targetPoint" />
          </mxGeometry>
        </mxCell>
        <mxCell id="LbHyzXiKhaaDVt7-LKor-94" value="Se actualiza&amp;nbsp;" style="text;html=1;align=center;verticalAlign=middle;resizable=0;points=[];autosize=1;strokeColor=none;fillColor=none;" vertex="1" parent="1">
          <mxGeometry x="597.5" y="1430" width="90" height="30" as="geometry" />
        </mxCell>
        <mxCell id="LbHyzXiKhaaDVt7-LKor-95" value="" style="endArrow=none;html=1;rounded=0;startFill=1;startArrow=classic;" edge="1" parent="1">
          <mxGeometry width="50" height="50" relative="1" as="geometry">
            <mxPoint x="542.5" y="1500" as="sourcePoint" />
            <mxPoint x="742.5" y="1500" as="targetPoint" />
          </mxGeometry>
        </mxCell>
        <mxCell id="LbHyzXiKhaaDVt7-LKor-96" value="Error 404" style="text;html=1;align=center;verticalAlign=middle;resizable=0;points=[];autosize=1;strokeColor=none;fillColor=none;" vertex="1" parent="1">
          <mxGeometry x="610" y="1470" width="70" height="30" as="geometry" />
        </mxCell>
        <mxCell id="LbHyzXiKhaaDVt7-LKor-97" value="" style="endArrow=none;html=1;rounded=0;startFill=1;startArrow=classic;" edge="1" parent="1">
          <mxGeometry width="50" height="50" relative="1" as="geometry">
            <mxPoint x="540" y="1550" as="sourcePoint" />
            <mxPoint x="740" y="1550" as="targetPoint" />
          </mxGeometry>
        </mxCell>
        <mxCell id="LbHyzXiKhaaDVt7-LKor-98" value="Post de actualización&amp;nbsp;" style="text;html=1;align=center;verticalAlign=middle;resizable=0;points=[];autosize=1;strokeColor=none;fillColor=none;" vertex="1" parent="1">
          <mxGeometry x="572.5" y="1518" width="140" height="30" as="geometry" />
        </mxCell>
        <mxCell id="LbHyzXiKhaaDVt7-LKor-99" value="" style="endArrow=none;html=1;rounded=0;startFill=1;startArrow=classic;" edge="1" parent="1">
          <mxGeometry width="50" height="50" relative="1" as="geometry">
            <mxPoint x="340" y="1570" as="sourcePoint" />
            <mxPoint x="540" y="1570" as="targetPoint" />
          </mxGeometry>
        </mxCell>
        <mxCell id="LbHyzXiKhaaDVt7-LKor-100" value="Post de actualización&amp;nbsp;" style="text;html=1;align=center;verticalAlign=middle;resizable=0;points=[];autosize=1;strokeColor=none;fillColor=none;" vertex="1" parent="1">
          <mxGeometry x="370" y="1540" width="140" height="30" as="geometry" />
        </mxCell>
        <mxCell id="LbHyzXiKhaaDVt7-LKor-101" value="" style="endArrow=none;html=1;rounded=0;startFill=1;startArrow=classic;" edge="1" parent="1">
          <mxGeometry width="50" height="50" relative="1" as="geometry">
            <mxPoint x="135" y="1590" as="sourcePoint" />
            <mxPoint x="335" y="1590" as="targetPoint" />
          </mxGeometry>
        </mxCell>
        <mxCell id="LbHyzXiKhaaDVt7-LKor-102" value="Cambios guardados&amp;nbsp;" style="text;html=1;align=center;verticalAlign=middle;resizable=0;points=[];autosize=1;strokeColor=none;fillColor=none;" vertex="1" parent="1">
          <mxGeometry x="165" y="1558" width="130" height="30" as="geometry" />
        </mxCell>
      </root>
    </mxGraphModel>
  </diagram>
</mxfile>
